# xmcd
#
# Track frame offsets: 
#        150
#        12637
#        21727
#        28195
#        42252
#        52822
#        66607
#        79812
#        93545
#        104942
#        116202
#        128000
#        139482
#        152447
#        164170
#        176227
#        188352
#        200710
#        212235
#        220700
#
# Disc length: 3129 seconds
#
# Revision: 0
# Processed by: cddbd v1.5.2PL0 Copyright (c) Steve Scherf et al.
# Submitted via: ExactAudioCopy v0.95b3
#
DISCID=3c0c3714
DTITLE=Texas Ruby And Curly Fox - A Memorial Tribute
DYEAR=1900
DGENRE=Country
TTITLE0=Rock My Cradle
TTITLE1=Whoa Mule
TTITLE2=Just One Little Kiss
TTITLE3=Listen To The Mocking Bird
TTITLE4=I Don't Love Nobody
TTITLE5=You'll Remember And Be Blue
TTITLE6=Blue Love
TTITLE7=The Old Home
TTITLE8=Ain't You Sorry
TTITLE9=Nobody Else But You
TTITLE10=I'll Take Back All I've Said About You
TTITLE11=Would It Make Any Difference To You
TTITLE12=Have You Got Someone Else On The Strinf
TTITLE13=Travelin' Blues
TTITLE14=Even Though I'd Shed A Million Tears
TTITLE15=The Letter That Broke My Heart
TTITLE16=We Live In Two Different Worlds
TTITLE17=With Tears In My Eyes
TTITLE18=Hometown Blues
TTITLE19=Casey Jones
EXTD=
EXTT0=
EXTT1=
EXTT2=
EXTT3=
EXTT4=
EXTT5=
EXTT6=
EXTT7=
EXTT8=
EXTT9=
EXTT10=
EXTT11=
EXTT12=
EXTT13=
EXTT14=
EXTT15=
EXTT16=
EXTT17=
EXTT18=
EXTT19=
PLAYORDER=
